<svg width="540" height="111" viewBox="0 0 540 111" fill="none" xmlns="http://www.w3.org/2000/svg">
<g clip-path="url(#clip0_1_81)">
<path d="M463.175 71.3446C471.159 72.2406 478.266 66.6604 478.348 58.8196L478.531 32.059H486.942V58.2086C486.942 70.1837 477.696 79.4501 465.864 79.9796C454.031 80.5091 442.769 71.3649 442.728 58.7993L442.667 32.1812L451.16 32.1201L451.363 59.451C451.424 65.7847 456.862 70.6318 463.175 71.3446Z" fill="white"/>
<path d="M176.283 32.1201H187.505L199.704 48.6367L212.432 32.1201H222.982L205.202 54.665L224.265 78.9003H212.819L199.419 61.0191L185.773 78.9003H175L194.062 54.665L176.283 32.1201Z" fill="white"/>
<path d="M247.624 32.1201H257.644L278.356 78.9003H268.255L263.204 66.5179H241.739L236.688 78.9003H226.973L247.624 32.1201ZM244.305 60.2859H260.719L252.655 40.1646H252.431" fill="white"/>
<path d="M283.896 32.1201H293.834L318.395 66.579H318.538V32.1201H327.499V78.9003H317.56L293.081 44.5025H292.857V78.9003H283.896V32.1201Z" fill="white"/>
<path d="M336.969 32.1201H380.511V39.187H363.404V78.8799H353.995V39.187H336.969V32.1201Z" fill="white"/>
<path d="M390.103 32.1201H399.512V50.7344H423.992V32.1201H433.401V78.9003H423.992V57.8013H399.512V78.9003H390.103V32.1201Z" fill="white"/>
<path d="M505.332 63.3001C505.332 65.0923 505.679 66.6197 506.392 67.8824C507.084 69.1451 508.082 70.1837 509.324 70.9983C510.587 71.813 512.033 72.4036 513.662 72.7702C515.291 73.1367 517.063 73.32 518.978 73.32C521.034 73.32 522.786 73.1164 524.252 72.6887C525.698 72.2814 526.879 71.7315 527.796 71.0798C528.692 70.4281 529.344 69.6746 529.751 68.8192C530.158 67.9638 530.362 67.1085 530.362 66.2328C530.362 64.4406 529.894 63.1168 528.977 62.2614C528.04 61.4061 527.022 60.8155 525.922 60.4692C524.008 59.8583 521.788 59.288 519.263 58.7382C516.737 58.1883 513.601 57.4755 509.874 56.5998C507.573 56.0702 505.638 55.3982 504.111 54.5428C502.583 53.6875 501.361 52.7506 500.465 51.6916C499.569 50.653 498.917 49.5328 498.551 48.3516C498.164 47.1704 497.98 45.9688 497.98 44.7469C497.98 42.3845 498.551 40.3479 499.671 38.6168C500.791 36.8857 502.298 35.4601 504.151 34.3196C506.005 33.1791 508.123 32.3441 510.485 31.7943C512.847 31.2444 515.23 30.9796 517.633 30.9796C520.444 30.9796 523.091 31.3055 525.576 31.9368C528.061 32.5682 530.24 33.5254 532.134 34.788C534.007 36.0507 535.515 37.6189 536.614 39.4722C537.714 41.3254 538.264 43.4842 538.264 45.9281H528.855C528.611 42.914 527.429 40.7959 525.311 39.5333C523.193 38.2909 520.525 37.6596 517.246 37.6596C516.147 37.6596 515.006 37.7614 513.845 37.9447C512.685 38.128 511.646 38.4742 510.689 38.9223C509.732 39.3907 508.937 40.0017 508.306 40.7959C507.675 41.5902 507.369 42.5678 507.369 43.749C507.369 45.419 507.96 46.702 509.141 47.6388C510.322 48.5756 511.87 49.2884 513.764 49.7569C513.968 49.7976 514.762 49.9809 516.147 50.3067C517.532 50.6326 519.079 50.9992 520.79 51.3861C522.501 51.7731 524.171 52.16 525.8 52.5266C527.429 52.8932 528.59 53.1783 529.303 53.3412C531.054 53.83 532.602 54.4817 533.906 55.2963C535.209 56.1313 536.309 57.0682 537.185 58.1476C538.06 59.2269 538.712 60.3674 539.14 61.5894C539.567 62.8113 539.771 64.0333 539.771 65.2552C539.771 67.8824 539.16 70.1226 537.918 71.9759C536.696 73.8292 535.066 75.3566 533.05 76.5378C531.034 77.719 528.753 78.5744 526.187 79.1243C523.621 79.6742 521.014 79.9389 518.346 79.9389C515.291 79.9389 512.399 79.6131 509.691 78.9614C506.982 78.3096 504.62 77.3117 502.603 75.9472C500.587 74.5827 498.978 72.8516 497.777 70.7336C496.575 68.6156 495.944 66.1106 495.903 63.239H505.312L505.332 63.3001Z" fill="white"/>
</g>
<path d="M146.952 105.368C145.123 108.986 141.505 111 137.784 111C135.996 111 134.167 110.527 132.522 109.541L73.9794 74.4111L47.8531 90.095C43.0842 92.9522 36.6914 91.945 33.5874 87.3406C30.278 82.4278 31.7991 75.8089 36.8147 72.8078L65.6544 55.5L5.38498 19.3428C0.698271 16.5267 -1.43952 10.5244 1.04772 5.63222C2.87718 2.01444 6.49499 0 10.2156 0C12.0039 0 13.8334 0.472778 15.4778 1.45944L74.0206 36.5889L100.147 20.905C104.916 18.0478 111.309 19.055 114.413 23.6594C117.722 28.5722 116.201 35.1911 111.185 38.1922L82.3456 55.5L142.615 91.6572C147.302 94.4733 149.44 100.476 146.952 105.368Z" fill="url(#paint0_linear_1_81)"/>
<defs>
<linearGradient id="paint0_linear_1_81" x1="74" y1="0" x2="74" y2="111" gradientUnits="userSpaceOnUse">
<stop stop-color="#FFA319"/>
<stop offset="1" stop-color="#FF600A"/>
</linearGradient>
<clipPath id="clip0_1_81">
<rect width="364.751" height="49" fill="white" transform="translate(175 31)"/>
</clipPath>
</defs>
</svg>
