<svg width="365" height="49" viewBox="0 0 365 49" fill="none" xmlns="http://www.w3.org/2000/svg">
<g clip-path="url(#clip0_1_71)">
<path d="M288.175 40.3446C296.159 41.2406 303.266 35.6604 303.348 27.8196L303.531 1.05902H311.942V27.2086C311.942 39.1837 302.696 48.4501 290.864 48.9796C279.031 49.5091 267.769 40.3649 267.728 27.7993L267.667 1.18122L276.16 1.12012L276.363 28.451C276.424 34.7847 281.862 39.6318 288.175 40.3446Z" fill="white"/>
<path d="M1.28304 1.12011H12.5046L24.7037 17.6367L37.4323 1.12011H47.9817L30.2024 23.665L49.2648 47.9003H37.8192L24.4185 30.0191L10.7735 47.9003H0L19.0623 23.665L1.28304 1.12011Z" fill="white"/>
<path d="M72.6243 1.12011H82.6442L103.356 47.9003H93.2548L88.2041 35.5179H66.7386L61.6879 47.9003H51.9734L72.6243 1.12011ZM69.3047 29.2859H85.7195L77.6546 9.16459H77.4306" fill="white"/>
<path d="M108.896 1.12011H118.834L143.395 35.579H143.538V1.12011H152.499V47.9003H142.56L118.081 13.5025H117.857V47.9003H108.896V1.12011Z" fill="white"/>
<path d="M161.969 1.12011H205.511V8.18703H188.404V47.8799H178.995V8.18703H161.969V1.12011Z" fill="white"/>
<path d="M215.103 1.12011H224.512V19.7344H248.992V1.12011H258.401V47.9003H248.992V26.8013H224.512V47.9003H215.103V1.12011Z" fill="white"/>
<path d="M330.332 32.3001C330.332 34.0923 330.679 35.6197 331.392 36.8824C332.084 38.1451 333.082 39.1837 334.324 39.9983C335.587 40.813 337.033 41.4036 338.662 41.7702C340.291 42.1367 342.063 42.32 343.978 42.32C346.034 42.32 347.786 42.1164 349.252 41.6887C350.698 41.2814 351.879 40.7315 352.796 40.0798C353.692 39.4281 354.344 38.6746 354.751 37.8192C355.158 36.9638 355.362 36.1085 355.362 35.2328C355.362 33.4406 354.894 32.1168 353.977 31.2614C353.04 30.4061 352.022 29.8155 350.922 29.4692C349.008 28.8583 346.788 28.288 344.263 27.7382C341.737 27.1883 338.601 26.4755 334.874 25.5998C332.573 25.0702 330.638 24.3982 329.111 23.5428C327.583 22.6875 326.361 21.7506 325.465 20.6916C324.569 19.653 323.917 18.5328 323.551 17.3516C323.164 16.1704 322.98 14.9688 322.98 13.7469C322.98 11.3845 323.551 9.34788 324.671 7.61679C325.791 5.88571 327.298 4.4601 329.151 3.31962C331.005 2.17914 333.123 1.34414 335.485 0.794267C337.847 0.244392 340.23 -0.0203629 342.633 -0.0203629C345.444 -0.0203629 348.091 0.305489 350.576 0.936828C353.061 1.56817 355.24 2.52536 357.134 3.78803C359.007 5.05071 360.515 6.61887 361.614 8.47216C362.714 10.3254 363.264 12.4842 363.264 14.9281H353.855C353.611 11.914 352.429 9.79593 350.311 8.53325C348.193 7.29094 345.525 6.6596 342.246 6.6596C341.147 6.6596 340.006 6.76143 338.845 6.94472C337.685 7.12802 336.646 7.47423 335.689 7.92228C334.732 8.39069 333.937 9.00167 333.306 9.79593C332.675 10.5902 332.369 11.5678 332.369 12.749C332.369 14.419 332.96 15.702 334.141 16.6388C335.322 17.5756 336.87 18.2884 338.764 18.7569C338.968 18.7976 339.762 18.9809 341.147 19.3067C342.532 19.6326 344.079 19.9992 345.79 20.3861C347.501 20.7731 349.171 21.16 350.8 21.5266C352.429 21.8932 353.59 22.1783 354.303 22.3412C356.054 22.83 357.602 23.4817 358.906 24.2963C360.209 25.1313 361.309 26.0682 362.185 27.1476C363.06 28.2269 363.712 29.3674 364.14 30.5894C364.567 31.8113 364.771 33.0333 364.771 34.2552C364.771 36.8824 364.16 39.1226 362.918 40.9759C361.696 42.8292 360.066 44.3566 358.05 45.5378C356.034 46.719 353.753 47.5744 351.187 48.1243C348.621 48.6742 346.014 48.9389 343.346 48.9389C340.291 48.9389 337.399 48.6131 334.691 47.9614C331.982 47.3096 329.62 46.3117 327.603 44.9472C325.587 43.5827 323.978 41.8516 322.777 39.7336C321.575 37.6156 320.944 35.1106 320.903 32.239H330.312L330.332 32.3001Z" fill="white"/>
</g>
<defs>
<clipPath id="clip0_1_71">
<rect width="364.751" height="49" fill="white"/>
</clipPath>
</defs>
</svg>
